REM DIRINDEX 1\6,1\2\7,1\2\8,1\2\9,1\3\10,1\3\11,1\4\12,1\4\13,1\4\14,1\5\15,1\5\16,1\5\17
REM DIRNAME cjc040,folder01,folder02,folder03,folder04,folder05,folder06,folder07,folder08,folder09,folder10,folder11,folder12,folder13,folder14,folder15,folder16
TITLE ""
FILE "P2Q_t_0001-0017.mp3" MP3
  TRACK 01 AUDIO
    TITLE "6:cjc040_1649"
    INDEX 01 00:00:00
  TRACK 02 AUDIO
    TITLE "0:"
    INDEX 01 00:05:48
  TRACK 03 AUDIO
    TITLE "10:cjc040_1650"
    INDEX 01 00:06:61
  TRACK 04 AUDIO
    TITLE "0:"
    INDEX 01 00:07:54
  TRACK 05 AUDIO
    TITLE "11:cjc040_1651"
    INDEX 01 00:08:36
  TRACK 06 AUDIO
    TITLE "0:"
    INDEX 01 00:11:50
  TRACK 07 AUDIO
    TITLE "10:cjc040_1652"
    INDEX 01 00:12:28
  TRACK 08 AUDIO
    TITLE "0:"
    INDEX 01 00:13:43
  TRACK 09 AUDIO
    TITLE "11:cjc040_1653"
    INDEX 01 00:14:23
  TRACK 10 AUDIO
    TITLE "0:"
    INDEX 01 00:15:62
  TRACK 11 AUDIO
    TITLE "10:cjc040_1654"
    INDEX 01 00:16:34
  TRACK 12 AUDIO
    TITLE "0:"
    INDEX 01 00:17:43
  TRACK 13 AUDIO
    TITLE "11:cjc040_1655"
    INDEX 01 00:18:19
  TRACK 14 AUDIO
    TITLE "0:"
    INDEX 01 00:24:69
  TRACK 15 AUDIO
    TITLE "10:cjc040_1656"
    INDEX 01 00:25:43
  TRACK 16 AUDIO
    TITLE "0:"
    INDEX 01 00:26:50
  TRACK 17 AUDIO
    TITLE "11:cjc040_1657"
    INDEX 01 00:27:28
  TRACK 18 AUDIO
    TITLE "0:"
    INDEX 01 00:28:60
  TRACK 19 AUDIO
    TITLE "10:cjc040_1658"
    INDEX 01 00:29:33
  TRACK 20 AUDIO
    TITLE "0:"
    INDEX 01 00:30:50
  TRACK 21 AUDIO
    TITLE "11:cjc040_1659"
    INDEX 01 00:31:22
  TRACK 22 AUDIO
    TITLE "0:"
    INDEX 01 00:34:30
  TRACK 23 AUDIO
    TITLE "10:cjc040_1660"
    INDEX 01 00:35:17
  TRACK 24 AUDIO
    TITLE "0:"
    INDEX 01 00:36:25
  TRACK 25 AUDIO
    TITLE "11:cjc040_1661"
    INDEX 01 00:37:07
  TRACK 26 AUDIO
    TITLE "0:"
    INDEX 01 00:41:57
  TRACK 27 AUDIO
    TITLE "10:cjc040_1662"
    INDEX 01 00:42:33
  TRACK 28 AUDIO
    TITLE "0:"
    INDEX 01 00:43:35
  TRACK 29 AUDIO
    TITLE "11:cjc040_1663"
    INDEX 01 00:44:20
  TRACK 30 AUDIO
    TITLE "0:"
    INDEX 01 00:45:45
  TRACK 31 AUDIO
    TITLE "10:cjc040_1664"
    INDEX 01 00:46:29
  TRACK 32 AUDIO
    TITLE "0:"
    INDEX 01 00:47:46
  TRACK 33 AUDIO
    TITLE "11:cjc040_1665"
    INDEX 01 00:48:30
  TRACK 34 AUDIO
    TITLE "0:"
    INDEX 01 00:50:70
  TRACK 35 AUDIO
    TITLE "10:cjc040_1666"
    INDEX 01 00:51:44
  TRACK 36 AUDIO
    TITLE "0:"
    INDEX 01 00:52:55
  TRACK 37 AUDIO
    TITLE "11:cjc040_1667"
    INDEX 01 00:53:31
  TRACK 38 AUDIO
    TITLE "0:"
    INDEX 01 00:54:50
  TRACK 39 AUDIO
    TITLE "10:cjc040_1668"
    INDEX 01 00:55:30
  TRACK 40 AUDIO
    TITLE "0:"
    INDEX 01 00:56:39
  TRACK 41 AUDIO
    TITLE "11:cjc040_1669"
    INDEX 01 00:57:21
  TRACK 42 AUDIO
    TITLE "0:"
    INDEX 01 01:01:54
  TRACK 43 AUDIO
    TITLE "10:cjc040_1670"
    INDEX 01 01:02:30
  TRACK 44 AUDIO
    TITLE "0:"
    INDEX 01 01:03:47
  TRACK 45 AUDIO
    TITLE "11:cjc040_1671"
    INDEX 01 01:04:25
  TRACK 46 AUDIO
    TITLE "0:"
    INDEX 01 01:05:54
  TRACK 47 AUDIO
    TITLE "10:cjc040_1672"
    INDEX 01 01:06:34
  TRACK 48 AUDIO
    TITLE "0:"
    INDEX 01 01:07:43
  TRACK 49 AUDIO
    TITLE "11:cjc040_1673"
    INDEX 01 01:08:25
  TRACK 50 AUDIO
    TITLE "0:"
    INDEX 01 01:11:29
  TRACK 51 AUDIO
    TITLE "10:cjc040_1674"
    INDEX 01 01:12:03
  TRACK 52 AUDIO
    TITLE "0:"
    INDEX 01 01:13:12
  TRACK 53 AUDIO
    TITLE "11:cjc040_1675"
    INDEX 01 01:13:69
  TRACK 54 AUDIO
    TITLE "0:"
    INDEX 01 01:16:67
  TRACK 55 AUDIO
    TITLE "10:cjc040_1676"
    INDEX 01 01:17:45
  TRACK 56 AUDIO
    TITLE "0:"
    INDEX 01 01:18:39
  TRACK 57 AUDIO
    TITLE "11:cjc040_1677"
    INDEX 01 01:19:27
  TRACK 58 AUDIO
    TITLE "0:"
    INDEX 01 01:24:16
  TRACK 59 AUDIO
    TITLE "10:cjc040_1678"
    INDEX 01 01:24:67
  TRACK 60 AUDIO
    TITLE "0:"
    INDEX 01 01:26:01
  TRACK 61 AUDIO
    TITLE "11:cjc040_1679"
    INDEX 01 01:26:62
  TRACK 62 AUDIO
    TITLE "0:"
    INDEX 01 01:28:08
  TRACK 63 AUDIO
    TITLE "10:cjc040_1680"
    INDEX 01 01:28:59
  TRACK 64 AUDIO
    TITLE "0:"
    INDEX 01 01:29:68
  TRACK 65 AUDIO
    TITLE "11:cjc040_1681"
    INDEX 01 01:30:46
  TRACK 66 AUDIO
    TITLE "0:"
    INDEX 01 01:32:12
  TRACK 67 AUDIO
    TITLE "10:cjc040_1682"
    INDEX 01 01:32:62
  TRACK 68 AUDIO
    TITLE "0:"
    INDEX 01 01:34:01
  TRACK 69 AUDIO
    TITLE "11:cjc040_1683"
    INDEX 01 01:34:55
  TRACK 70 AUDIO
    TITLE "0:"
    INDEX 01 01:37:32
